<svg width="937" height="214" viewBox="0 0 937 214" fill="none" xmlns="http://www.w3.org/2000/svg">
<path d="M26.6492 155.225C38.5685 130.842 50.3483 106.659 62.1377 82.4815C74.8187 56.4751 87.5462 30.4912 100.146 4.44538C101.653 1.32979 103.577 -0.00943989 107.11 0.0212397C122.953 0.158812 138.798 0.120473 154.641 0.000382229C157.481 -0.0211365 159.284 0.862864 160.546 3.4329C176.138 35.1718 191.787 66.8824 207.4 98.611C209.32 102.513 208.643 103.722 204.34 103.781C187.853 104.005 171.363 104.11 154.875 104.333C151.839 104.375 150.564 102.488 149.385 100.186C143.218 88.1387 137.013 76.1104 130.813 64.0801C130.329 63.1412 129.779 62.2366 128.896 60.6709C126.329 65.6733 124.031 70.1834 121.706 74.6799C104.97 107.052 88.2267 139.42 71.4889 171.79C65.1679 184.015 58.7959 196.215 52.582 208.494C51.1025 211.417 49.2497 212.816 45.8297 212.806C32.0347 212.766 18.239 212.984 4.44341 213.071C-0.11636 213.099 -0.984024 211.628 1.00792 207.562C9.51882 190.188 18.0134 172.806 26.6492 155.225Z" fill="white"/>
<path d="M210.16 124.381C220.503 124.479 218.786 123.123 223.43 132.533C235.473 156.937 247.515 181.341 259.575 205.736C262.444 211.541 262.004 212.372 255.571 212.383C228.51 212.432 201.45 212.433 174.389 212.465C143.34 212.502 112.291 212.577 81.2417 212.525C79.7191 212.522 78.1984 211.466 76.6768 210.9C77.2702 209.604 77.6196 208.109 78.4927 207.042C100.245 180.462 122.059 153.934 143.834 127.372C145.475 125.371 147.424 124.575 150.007 124.573C169.952 124.56 189.896 124.456 210.16 124.381Z" fill="white"/>
<path d="M648.746 52.2655C665.977 59.4129 667.528 81.6007 661.715 92.7776C659.548 96.9442 655.836 99.5482 651.64 101.488C650.523 102.005 649.426 102.566 647.839 103.341C650.886 104.804 653.48 105.778 655.794 107.207C667.727 114.576 672.093 130.405 666.194 143.923C660.467 157.046 649.392 162.85 636.23 163.52C617.647 164.465 598.981 163.759 579.92 163.759C579.92 162.657 579.92 161.504 579.92 160.35C579.921 124.348 579.962 88.3452 579.849 52.3433C579.839 49.275 580.751 48.5627 583.665 48.5907C598.431 48.7326 613.199 48.6904 627.967 48.6668C635.028 48.6555 641.931 49.4729 648.746 52.2655ZM617.409 113.591C612.489 113.591 607.568 113.591 602.835 113.591C602.551 114.12 602.367 114.303 602.367 114.487C602.328 123.85 602.327 133.212 602.261 142.574C602.247 144.591 603.387 144.774 604.977 144.756C610.036 144.697 615.098 144.812 620.154 144.69C624.769 144.579 629.441 144.638 633.977 143.921C640.94 142.82 645.255 137.505 645.638 130.477C646.071 122.537 642.66 116.384 635.641 114.867C629.953 113.638 623.93 113.956 617.409 113.591ZM602.323 78.4197C602.323 84.2066 602.323 89.9935 602.323 96.1137C605.307 96.1137 607.865 96.177 610.418 96.1016C617.409 95.8951 624.44 96.0202 631.375 95.273C637.644 94.5976 641.731 89.195 642.05 82.5635C642.383 75.6377 638.924 69.7034 632.436 68.9191C622.592 67.7292 612.598 67.788 602.319 67.2999C602.319 71.3653 602.319 74.5697 602.323 78.4197Z" fill="white"/>
<path d="M355.737 142.007C358.339 149.313 360.862 156.38 363.626 164.124C358.621 164.124 354.257 164.123 349.892 164.124C347.628 164.125 345.364 164.128 343.101 164.134C338.286 164.148 338.404 164.116 337.127 159.541C335.308 153.024 333.239 146.576 331.404 140.063C330.916 138.332 330.169 137.608 328.296 137.614C315.252 137.653 302.207 137.626 289.164 137.525C287.247 137.51 286.551 138.353 286.073 140.024C284.001 147.265 281.872 154.49 279.641 161.683C279.352 162.617 278.363 164.023 277.672 164.039C270.055 164.208 262.432 164.145 254.339 164.145C256.977 156.598 259.462 149.519 261.928 142.433C272.47 112.139 283.023 81.8483 293.507 51.534C294.207 49.5105 295.11 48.6095 297.391 48.6526C304.18 48.7809 310.982 48.8489 317.76 48.536C321.007 48.3861 322.492 49.4116 323.568 52.4741C330.31 71.6595 337.237 90.7798 344.124 109.914C347.948 120.539 351.811 131.15 355.737 142.007ZM322.146 119.765C322.955 119.707 323.764 119.648 325.134 119.549C319.814 103.054 314.617 86.9373 309.419 70.8209C309.145 70.8492 308.871 70.8775 308.597 70.9058C303.297 87.028 297.998 103.15 292.535 119.769C302.673 119.769 312.115 119.769 322.146 119.765Z" fill="white"/>
<path d="M476.748 163.489C470.916 161.064 466.848 156.918 463.535 151.885C463.268 151.97 463.001 152.055 462.734 152.139C462.734 156 462.734 159.861 462.734 163.906C455.423 163.906 448.664 163.906 441.565 163.906C441.565 125.679 441.565 87.4847 441.565 48.7321C445.738 48.7321 450.005 48.7458 454.272 48.7292C462.709 48.6963 462.739 48.6894 462.723 57.1522C462.704 66.6384 462.621 76.1244 462.581 85.6106C462.577 86.5384 462.676 87.4667 462.774 89.2422C463.917 88.1118 464.583 87.559 465.123 86.903C472.826 77.5527 483.011 75.4136 494.268 77.4008C508.706 79.9496 517.227 89.0683 521.28 102.868C525.854 118.443 525.026 133.701 517.582 148.086C509.807 163.109 493.005 169.156 476.748 163.489ZM482.77 95.5129C475.844 95.4206 470.593 98.4459 466.794 104.136C460.761 113.173 461.462 131.638 468.068 140.312C472.612 146.279 478.602 148.587 485.908 147.536C492.68 146.563 496.704 142.352 499.012 136.132C502.15 127.672 502.158 119.089 500.031 110.469C497.985 102.175 493.748 95.9693 482.77 95.5129Z" fill="white"/>
<path d="M855.643 128.163C854.972 118.331 855.23 108.936 859.277 99.9938C864.976 87.402 874.426 79.4975 888.151 77.3914C902.276 75.224 915.526 76.9742 925.918 88.1342C932.898 95.6299 935.818 104.907 936.812 114.841C937.195 118.663 936.875 122.555 936.875 126.758C916.952 126.758 897.082 126.758 877.26 126.758C875.97 136.743 883.617 147.479 894.289 148.127C902.995 148.656 910.869 147.366 915.786 138.977C916.087 138.464 916.981 138.025 917.605 138.018C923.729 137.947 929.855 137.975 936.489 137.975C934.241 147.941 929.043 155.189 920.752 160.21C911.866 165.59 902.051 166.268 892.022 165.484C871.172 163.854 856.927 149.314 855.643 128.163ZM877.909 112.078C890.323 112.078 902.738 112.078 915.145 112.078C915.157 102.894 910.919 96.4762 902.845 94.7452C898.68 93.8525 893.978 93.9091 889.823 94.863C881.487 96.777 877.06 105.049 877.909 112.078Z" fill="white"/>
<path d="M695.35 81.9651C707.048 75.5543 719.345 75.8504 731.737 77.7138C740.232 78.9911 747.462 82.932 751.388 90.7841C753.541 95.0885 755.114 100.154 755.236 104.919C755.723 123.981 755.541 143.06 755.593 162.132C755.595 162.642 755.443 163.152 755.336 163.834C749.017 163.834 742.83 163.834 736.157 163.834C736.157 160.313 736.157 156.943 736.157 153.572C735.727 153.31 735.297 153.048 734.868 152.786C734.596 153.448 734.471 154.237 734.03 154.755C725.043 165.303 713.246 167.181 700.539 164.804C696.058 163.966 691.37 161.983 687.74 159.244C673.683 148.642 676.225 127.397 692.239 119.101C699.556 115.31 707.632 114.48 715.589 113.237C718.992 112.706 722.438 112.456 725.849 111.974C730.488 111.319 733.164 109.359 733.642 106.418C734.379 101.872 732.349 97.7308 728.249 95.7218C723.4 93.3457 718.332 93.2609 713.143 94.422C708.032 95.5655 704.539 98.501 702.511 103.339C702.184 104.118 701.071 105.122 700.356 105.096C694.15 104.871 687.952 104.435 681.487 104.045C682.751 94.312 687.304 87.1826 695.35 81.9651ZM733.886 135.102C733.886 131.072 733.886 127.042 733.886 123.642C728.657 124.678 723.878 125.592 719.114 126.578C715.037 127.423 710.848 127.98 706.944 129.342C702.819 130.78 700.805 134.873 701.081 139.455C701.375 144.337 703.324 147.169 707.751 148.597C714.204 150.68 720.57 150.015 726.455 146.838C730.736 144.528 734.027 141.142 733.886 135.102Z" fill="white"/>
<path d="M773.202 113.384C767.169 98.4559 774.694 83.4172 790.64 78.731C801.953 75.4065 813.431 75.548 824.734 78.9007C835.253 82.0205 843.296 92.4876 843.47 103.164C836.883 103.543 830.268 103.971 823.647 104.223C823.085 104.244 822.19 103.192 821.938 102.468C819.9 96.6076 815.981 93.2878 809.816 93.1781C805.895 93.1084 801.9 93.5429 798.051 94.3126C795.057 94.9113 792.996 97.0405 792.706 100.371C792.4 103.89 793.851 106.707 797.046 107.897C801.347 109.5 805.858 110.565 810.319 111.706C816.354 113.25 822.546 114.276 828.454 116.194C837.417 119.104 843.931 124.717 845.186 134.691C846.482 144.991 842.331 152.958 834.016 158.844C829.102 162.322 823.596 164.466 817.571 165.021C807.331 165.963 797.033 166.503 787.261 162.579C777.295 158.577 770.85 151.394 769.331 140.403C769.26 139.89 769.322 139.359 769.322 138.54C775.766 138.228 782.087 137.858 788.412 137.706C789.099 137.689 790.145 138.797 790.465 139.605C792.509 144.769 796.217 148.177 801.658 148.624C806.733 149.04 811.954 148.807 817.001 148.088C821.099 147.504 823.827 143.529 823.833 139.78C823.839 136.418 821.89 133.842 817.534 132.672C810.688 130.833 803.683 129.584 796.842 127.728C792.212 126.472 787.655 124.824 783.237 122.946C778.871 121.09 775.694 117.703 773.202 113.384Z" fill="white"/>
<path d="M398.319 133.082C398.32 143.416 398.32 153.427 398.32 163.784C390.966 163.784 383.821 163.784 376.374 163.784C376.374 135.479 376.374 107.01 376.374 78.3506C382.919 78.3506 389.438 78.3506 396.542 78.3506C396.542 82.5703 396.542 86.7818 396.542 91.3232C399.463 88.1409 401.696 85.1589 404.464 82.8056C410.354 77.7983 417.439 76.3598 425.002 77.0101C427.762 77.2475 429.516 78.3137 429.379 81.6596C429.148 87.3256 429.316 93.0079 429.316 98.0143C423.961 97.8755 418.893 97.046 414.056 97.7674C404.653 99.1697 398.684 106.625 398.399 116.28C398.236 121.769 398.336 127.265 398.319 133.082Z" fill="white"/>
<path d="M537.932 158.658C537.925 131.754 537.925 105.151 537.925 78.3717C545.426 78.3717 552.592 78.3717 559.931 78.3717C559.931 106.903 559.931 135.295 559.931 163.907C552.658 163.907 545.599 163.907 537.938 163.907C537.938 162.289 537.938 160.624 537.932 158.658Z" fill="white"/>
<path d="M549.709 45.4646C559.542 46.2491 564.53 54.1054 560.363 61.8132C557.548 67.0217 550.002 69.2281 543.285 66.8071C538.031 64.9135 535.257 59.8239 536.39 54.1581C537.46 48.8083 542.159 45.6758 549.709 45.4646Z" fill="white"/>
</svg>
